# Blender 4.4.3
# www.blender.org
o texture_pbr_v128
v -0.248163 0.411197 -0.067329
v 0.248163 0.411197 -0.067329
v 0.248163 -0.411197 -0.067329
v -0.248163 -0.411197 -0.067329
v -0.338967 0.420484 -0.062685
v -0.338967 -0.420484 -0.062685
v 0.338967 -0.420484 -0.062685
v 0.338967 0.420484 -0.062685
v 0.266736 0.456599 -0.062685
v 0.320393 0.447312 -0.061138
v -0.266736 0.456599 -0.062685
v -0.320393 0.447312 -0.061139
v 0.266736 -0.456599 -0.062685
v 0.320393 -0.447312 -0.061138
v -0.266736 -0.456599 -0.062685
v -0.320393 -0.447312 -0.061139
v 0.329680 -0.459695 -0.051850
v 0.329680 -0.459695 -0.051850
v 0.329680 -0.459695 -0.051850
v 0.273959 -0.473109 -0.051850
v 0.273959 -0.473109 -0.051850
v 0.329680 0.459695 -0.051850
v 0.329680 0.459695 -0.051850
v 0.329680 0.459695 -0.051850
v 0.273959 0.473109 -0.051850
v 0.273959 0.473109 -0.051850
v -0.329680 0.459695 -0.051851
v -0.329680 0.459695 -0.051851
v -0.329680 0.459695 -0.051851
v -0.273959 0.473109 -0.051851
v -0.273959 0.473109 -0.051851
v -0.329680 -0.459695 -0.051851
v -0.329680 -0.459695 -0.051851
v -0.329680 -0.459695 -0.051851
v -0.273959 -0.473109 -0.051851
v -0.273959 -0.473109 -0.051851
v 0.355477 -0.409134 -0.051850
v 0.355477 -0.409134 -0.051850
v 0.355477 0.409134 -0.051850
v 0.355477 0.409134 -0.051850
v -0.355477 0.409134 -0.051851
v -0.355477 0.409134 -0.051851
v -0.355477 -0.409134 -0.051851
v -0.355477 -0.409134 -0.051851
v -0.249195 0.408102 -0.054947
v -0.249195 -0.408101 -0.054947
v 0.249195 -0.408101 -0.054946
v 0.249195 0.408102 -0.054946
v 0.343094 -0.418420 -0.048756
v 0.343094 -0.418420 -0.048756
v 0.343094 0.418420 -0.048756
v 0.343094 0.418420 -0.048756
v -0.343094 0.418420 -0.048756
v -0.343094 0.418420 -0.048756
v -0.343094 -0.418420 -0.048756
v -0.343094 -0.418420 -0.048756
v -0.267768 0.461758 -0.048756
v -0.267768 0.461758 -0.048756
v -0.323489 0.450408 -0.047208
v -0.323489 0.450408 -0.047208
v 0.267768 0.461758 -0.048756
v 0.267768 0.461758 -0.048756
v 0.323489 0.450408 -0.047208
v 0.323489 0.450408 -0.047208
v 0.267768 -0.461758 -0.048756
v 0.267768 -0.461758 -0.048756
v 0.323489 -0.450408 -0.047208
v 0.323489 -0.450408 -0.047208
v -0.267768 -0.461758 -0.048756
v -0.267768 -0.461758 -0.048756
v -0.323489 -0.450408 -0.047208
v -0.323489 -0.450408 -0.047208
v 0.330712 -0.458663 -0.034825
v 0.330712 -0.458663 -0.034825
v 0.330712 -0.458663 -0.034825
v 0.330712 0.458663 -0.034825
v 0.330712 0.458663 -0.034825
v 0.330712 0.458663 -0.034825
v -0.330712 0.458663 -0.034826
v -0.330712 0.458663 -0.034826
v -0.330712 0.458663 -0.034826
v -0.330712 -0.458663 -0.034826
v -0.330712 -0.458663 -0.034826
v -0.330712 -0.458663 -0.034826
v 0.371986 0.432866 0.056495
v 0.371986 0.432866 0.056495
v 0.371986 -0.432866 0.056495
v 0.371986 -0.432866 0.056495
v 0.343094 -0.481364 0.056495
v 0.343094 -0.481364 0.056495
v 0.343094 -0.481364 0.056495
v 0.343094 0.481364 0.056495
v 0.343094 0.481364 0.056495
v 0.343094 0.481364 0.056495
v -0.371986 -0.432866 0.056494
v -0.371986 -0.432866 0.056494
v -0.371986 0.432866 0.056494
v -0.371986 0.432866 0.056494
v -0.343094 0.481364 0.056494
v -0.343094 0.481364 0.056494
v -0.343094 0.481364 0.056494
v -0.343094 -0.481364 0.056494
v -0.343094 -0.481364 0.056494
v -0.343094 -0.481364 0.056494
v 0.353413 -0.411197 -0.036373
v 0.369923 -0.431834 0.064233
v 0.369923 -0.431834 0.064233
v 0.369923 0.431834 0.064233
v 0.369923 0.431834 0.064233
v 0.353413 0.411197 -0.036373
v 0.344126 0.479300 0.064233
v 0.344126 0.479300 0.064233
v 0.344126 0.479300 0.064233
v 0.344126 -0.479300 0.064233
v 0.344126 -0.479300 0.064233
v 0.348253 -0.486523 0.067329
v 0.348253 -0.486523 0.067329
v 0.348253 -0.486523 0.067329
v 0.348253 -0.486523 0.067329
v -0.353413 0.411197 -0.036374
v -0.369923 0.431834 0.064233
v -0.369923 0.431834 0.064233
v -0.369923 -0.431834 0.064233
v -0.369923 -0.431834 0.064233
v -0.353413 -0.411197 -0.036374
v -0.344126 -0.479300 0.064233
v -0.344126 -0.479300 0.064233
v -0.344126 -0.479300 0.064233
v -0.344126 0.479300 0.064233
v -0.344126 0.479300 0.064233
v -0.348253 0.486523 0.067329
v -0.348253 0.486523 0.067329
v -0.348253 0.486523 0.067329
v -0.348253 0.486523 0.067329
v 0.285310 -0.496842 0.056495
v 0.285310 -0.496842 0.056495
v -0.285310 -0.496842 0.056494
v -0.285310 -0.496842 0.056494
v -0.285310 0.496842 0.056494
v -0.285310 0.496842 0.056494
v 0.285310 0.496842 0.056495
v 0.285310 0.496842 0.056495
v -0.284278 -0.493746 0.064233
v -0.284278 -0.493746 0.064233
v 0.284278 -0.493746 0.064233
v 0.284278 -0.493746 0.064233
v 0.271896 -0.472077 -0.034825
v -0.271896 -0.472077 -0.034826
v 0.287374 -0.502001 0.067329
v 0.287374 -0.502001 0.067329
v 0.287374 -0.502001 0.067329
v 0.287374 -0.502001 0.067329
v 0.284278 0.493746 0.064233
v 0.284278 0.493746 0.064233
v -0.284278 0.493746 0.064233
v -0.284278 0.493746 0.064233
v -0.271896 0.472077 -0.034826
v 0.271896 0.472077 -0.034825
v -0.287374 0.502001 0.067329
v -0.287374 0.502001 0.067329
v -0.287374 0.502001 0.067329
v -0.287374 0.502001 0.067329
v 0.377146 0.435962 0.067329
v 0.377146 0.435962 0.067329
v 0.377146 -0.435962 0.067329
v 0.377146 -0.435962 0.056495
v 0.377146 -0.435962 0.056495
v 0.377146 0.435962 0.056495
v 0.377146 0.435962 0.056495
v 0.377146 0.435962 0.056495
v 0.348253 -0.486523 0.056495
v 0.348253 -0.486523 0.056495
v 0.348253 -0.486523 0.056495
v 0.348253 0.486523 0.067329
v 0.348253 0.486523 0.067329
v 0.348253 0.486523 0.067329
v 0.287374 0.502001 0.067329
v 0.287374 0.502001 0.067329
v -0.377146 -0.435962 0.067329
v -0.377146 -0.435962 0.067329
v -0.377146 0.435962 0.067329
v -0.377146 0.435962 0.056494
v -0.377146 0.435962 0.056494
v -0.377146 -0.435962 0.056494
v -0.377146 -0.435962 0.056494
v -0.377146 -0.435962 0.056494
v -0.348253 0.486523 0.056494
v -0.348253 0.486523 0.056494
v -0.348253 0.486523 0.056494
v -0.348253 -0.486523 0.067329
v -0.348253 -0.486523 0.067329
v -0.348253 -0.486523 0.067329
v -0.287374 -0.502001 0.067329
v -0.287374 -0.502001 0.067329
v -0.287374 -0.502001 0.056494
v -0.287374 -0.502001 0.056494
v 0.287374 -0.502001 0.056495
v 0.287374 -0.502001 0.056495
v 0.287374 -0.502001 0.056495
v -0.348253 -0.486523 0.056494
v -0.348253 -0.486523 0.056494
v -0.348253 -0.486523 0.056494
v 0.287374 0.502001 0.056495
v -0.287374 0.502001 0.056494
v -0.287374 0.502001 0.056494
v 0.348253 0.486523 0.056495
v 0.348253 0.486523 0.056495
vn 0.0209 -0.0464 -0.9987
vn -0.0209 -0.0464 -0.9987
vn -0.0209 0.0464 -0.9987
vn -0.0396 0.3435 -0.9383
vn 0.0396 0.3435 -0.9383
vn 0.0209 0.0464 -0.9987
vn 0.4279 0.1828 -0.8852
vn 0.4279 -0.1828 -0.8852
vn 0.1873 0.3245 -0.9271
vn -0.4279 -0.1828 -0.8852
vn -0.4279 0.1828 -0.8852
vn -0.1873 0.3245 -0.9271
vn 0.0396 -0.3435 -0.9383
vn -0.0396 -0.3435 -0.9383
vn 0.1873 -0.3245 -0.9271
vn -0.1873 -0.3245 -0.9271
vn -0.0999 0.8514 -0.5149
vn 0.0999 0.8514 -0.5149
vn 0.5315 0.6931 -0.4870
vn -0.5315 0.6930 -0.4870
vn 0.8729 0.1590 -0.4613
vn 0.8729 -0.1590 -0.4613
vn -0.8729 -0.1590 -0.4613
vn -0.8729 0.1590 -0.4613
vn 0.5315 -0.6930 -0.4870
vn -0.5315 -0.6931 -0.4870
vn 0.0999 -0.8514 -0.5149
vn -0.0999 -0.8514 -0.5149
vn 0.0275 -0.0521 0.9983
vn 0.0275 0.0521 0.9983
vn -0.0275 0.0521 0.9983
vn -0.0613 -0.5438 0.8370
vn 0.0614 -0.5437 0.8370
vn -0.5858 0.2217 0.7796
vn -0.5858 -0.2216 0.7796
vn -0.0275 -0.0521 0.9983
vn -0.3038 -0.4711 0.8281
vn 0.5858 -0.2217 0.7796
vn 0.5858 0.2216 0.7796
vn 0.3038 -0.4711 0.8281
vn 0.0613 0.5437 0.8370
vn -0.0614 0.5437 0.8370
vn -0.3038 0.4711 0.8281
vn 0.3038 0.4711 0.8281
vn -0.0999 0.8515 -0.5148
vn -0.0938 0.6950 -0.7129
vn 0.0937 0.6950 -0.7129
vn 0.3720 0.4986 -0.7830
vn -0.5315 0.6931 -0.4870
vn -0.3720 0.4986 -0.7830
vn 0.3719 0.4986 -0.7830
vn 0.6503 0.1962 -0.7339
vn -0.6503 0.1962 -0.7339
vn 0.8729 0.1590 -0.4612
vn 0.6503 -0.1962 -0.7339
vn -0.8729 -0.1590 -0.4612
vn -0.6503 -0.1962 -0.7339
vn 0.3720 -0.4986 -0.7830
vn -0.3719 -0.4986 -0.7830
vn 0.5315 -0.6931 -0.4870
vn 0.0938 -0.6950 -0.7129
vn -0.0937 -0.6950 -0.7129
vn -0.3720 -0.4986 -0.7830
vn 0.0999 -0.8515 -0.5148
vn -0.0614 -0.5439 0.8369
vn -0.1014 -0.9090 0.4043
vn 0.1014 -0.9090 0.4043
vn -0.5605 -0.7197 0.4097
vn 0.0614 -0.5438 0.8370
vn 0.5605 -0.7197 0.4097
vn -0.9129 0.1605 0.3754
vn -0.9129 -0.1605 0.3754
vn -0.5858 -0.2217 0.7795
vn 0.9129 -0.1605 0.3754
vn 0.9129 0.1605 0.3754
vn 0.5858 0.2217 0.7795
vn 0.5858 -0.2217 0.7795
vn -0.5605 0.7197 0.4097
vn -0.5858 0.2217 0.7795
vn 0.5605 0.7197 0.4097
vn 0.0614 0.5438 0.8370
vn 0.1014 0.9090 0.4043
vn -0.1014 0.9090 0.4043
vn -0.0614 0.5438 0.8370
vn -0.7614 0.1990 0.6170
vn -0.7615 -0.1972 0.6174
vn -0.4516 -0.5808 0.6773
vn 0.7614 -0.1990 0.6170
vn 0.7615 0.1972 0.6174
vn 0.4559 -0.5783 0.6765
vn -0.4559 0.5783 0.6765
vn 0.4516 0.5808 0.6773
vn -0.0953 -0.7847 0.6125
vn 0.0944 -0.7847 0.6127
vn -0.4518 -0.5807 0.6773
vn 0.4559 -0.5784 0.6765
vn -0.0944 0.7847 0.6127
vn -0.4559 0.5784 0.6765
vn 0.4518 0.5807 0.6773
vn 0.0953 0.7847 0.6125
vn -0.0937 0.6950 -0.7129
vn -0.1055 0.8438 -0.5261
vn -0.0960 0.7863 0.6104
vn 0.0949 0.7868 0.6099
vn 0.1056 0.8439 -0.5261
vn 0.5329 0.7006 -0.4746
vn 0.5112 0.6625 0.5475
vn -0.3719 0.4986 -0.7830
vn -0.5330 0.7005 -0.4746
vn -0.5329 0.7005 -0.4746
vn -0.5095 0.6641 0.5473
vn -0.0960 0.7863 0.6103
vn 0.8376 0.2225 -0.4989
vn 0.6504 0.1962 -0.7338
vn 0.5112 0.6626 0.5475
vn 0.7878 0.2036 0.5813
vn 0.8376 0.2224 -0.4990
vn -0.6504 0.1962 -0.7338
vn -0.8376 0.2225 -0.4989
vn -0.8376 0.2225 -0.4990
vn -0.7890 0.2018 0.5804
vn -0.5093 0.6641 0.5473
vn 0.8376 -0.2225 -0.4990
vn 0.6504 -0.1962 -0.7338
vn 0.7878 0.2035 0.5813
vn 0.7890 -0.2018 0.5804
vn 0.8375 -0.2225 -0.4990
vn -0.6504 -0.1962 -0.7338
vn -0.8376 -0.2225 -0.4989
vn -0.7878 -0.2035 0.5813
vn 0.5330 -0.7005 -0.4746
vn 0.3719 -0.4986 -0.7830
vn -0.5328 -0.7006 -0.4746
vn 0.5093 -0.6641 0.5473
vn -0.5112 -0.6626 0.5475
vn -0.7878 -0.2036 0.5813
vn -0.8376 -0.2224 -0.4990
vn 0.1055 -0.8439 -0.5261
vn 0.0937 -0.6950 -0.7129
vn -0.1056 -0.8439 -0.5261
vn 0.5329 -0.7005 -0.4746
vn 0.5095 -0.6641 0.5473
vn 0.0960 -0.7863 0.6103
vn -0.0949 -0.7868 0.6099
vn -0.5112 -0.6625 0.5475
vn -0.5329 -0.7005 -0.4746
vn 0.0960 -0.7863 0.6104
vn -0.1055 -0.8439 -0.5261
vn 0.0949 0.7868 0.6098
vn -0.0961 0.7863 0.6103
vn 0.0944 -0.7846 0.6127
vn -0.5094 0.6641 0.5472
vn -0.4517 -0.5808 0.6773
vn 0.4517 0.5808 0.6773
vn 0.0961 -0.7863 0.6103
vn 0.5094 -0.6641 0.5472
vn -0.0949 -0.7868 0.6098
vn -0.0944 0.7846 0.6127
vn 0.0999 0.8514 -0.5148
vn -0.8729 0.1590 -0.4612
vn 0.8729 -0.1590 -0.4612
vn -0.0999 -0.8514 -0.5148
vn -0.3038 -0.4712 0.8281
vn 0.3038 -0.4712 0.8281
vn -0.3038 0.4712 0.8281
vn 0.3038 0.4712 0.8281
vn -0.1056 0.8438 -0.5261
vn -0.5329 0.7006 -0.4746
vn 0.5329 -0.7006 -0.4746
vn -0.5329 -0.7006 -0.4746
vn 0.1056 -0.8438 -0.5261
vn -0.5094 0.6641 0.5473
vn 0.5094 -0.6641 0.5473
vt 0.669549 0.539434
vt 0.940906 0.539434
vt 0.940906 0.967382
vt 0.951061 0.991008
vt 0.659394 0.991008
vt 0.669549 0.967382
vt 0.619903 0.972215
vt 0.619903 0.534602
vt 0.630058 0.986175
vt 0.990552 0.534602
vt 0.990552 0.972215
vt 0.980397 0.986175
vt 0.659394 0.515808
vt 0.951061 0.515808
vt 0.630058 0.520641
vt 0.980397 0.520641
vt 0.955010 0.999599
vt 0.655445 0.999599
vt 0.624981 0.992619
vt 0.985475 0.992619
vt 0.610877 0.966308
vt 0.610877 0.540508
vt 0.999578 0.540508
vt 0.999578 0.966308
vt 0.624981 0.514197
vt 0.985475 0.514197
vt 0.655445 0.507217
vt 0.955010 0.507217
vt 0.206801 0.307697
vt 0.651546 0.307697
vt 0.651546 0.049159
vt 0.177487 0.039489
vt 0.177487 0.317367
vt 0.657191 0.000401
vt 0.201157 0.000401
vt 0.206801 0.049159
vt 0.183689 0.010558
vt 0.201156 0.356456
vt 0.657191 0.356455
vt 0.183689 0.346298
vt 0.680860 0.317367
vt 0.680860 0.039489
vt 0.674658 0.010558
vt 0.674658 0.346298
vt 0.390109 0.931449
vt 0.396315 0.971532
vt 0.084298 0.971532
vt 0.052698 0.968740
vt 0.060034 0.929030
vt 0.420575 0.929030
vt 0.427909 0.968740
vt 0.034241 0.650762
vt 0.022344 0.688936
vt 0.048968 0.693264
vt 0.044768 0.802326
vt 0.018128 0.797998
vt 0.030030 0.759824
vt 0.061998 0.654626
vt 0.524372 0.693264
vt 0.507141 0.763687
vt 0.520172 0.802326
vt 0.551012 0.688936
vt 0.539110 0.650762
vt 0.534899 0.759824
vt 0.546796 0.797998
vt 0.069307 0.698877
vt 0.061973 0.738588
vt 0.093567 0.741379
vt 0.405584 0.741379
vt 0.437184 0.738588
vt 0.429848 0.698877
vt 0.099773 0.701296
vt 0.846124 0.418915
vt 0.838439 0.420744
vt 0.838440 0.138943
vt 0.841048 0.451911
vt 0.846125 0.140772
vt 0.841047 0.107776
vt 0.065306 0.856954
vt 0.515271 0.856955
vt 0.519826 0.850441
vt 0.543824 0.853539
vt 0.027506 0.090179
vt 0.027506 0.518133
vt 0.020658 0.522465
vt 0.023915 0.063023
vt 0.020658 0.085847
vt 0.036754 0.853538
vt 0.060752 0.850441
vt 0.023915 0.545289
vt 0.941402 0.415708
vt 0.933717 0.417536
vt 0.933718 0.135736
vt 0.941403 0.137564
vt 0.936325 0.104568
vt 0.936326 0.448704
vt 0.053865 0.892943
vt 0.526713 0.892943
vt 0.556071 0.888592
vt 0.065346 0.079298
vt 0.065346 0.529014
vt 0.060771 0.051375
vt 0.024506 0.888591
vt 0.060771 0.556937
vt 0.800400 0.427229
vt 0.800400 0.132459
vt 0.803137 0.459102
vt 0.803136 0.100586
vt 0.895678 0.129252
vt 0.898415 0.097378
vt 0.898415 0.455894
vt 0.895678 0.424021
vt 0.020476 0.929736
vt 0.007026 0.643558
vt 0.004230 0.642599
vt 0.000422 0.642760
vt 0.013955 0.931050
vt 0.017739 0.930699
vt 0.022699 0.961824
vt 0.025676 0.959458
vt 0.018914 0.962366
vt 0.014659 0.613603
vt 0.011786 0.610973
vt 0.581366 0.787891
vt 0.585582 0.787891
vt 0.585582 0.820770
vt 0.048446 0.978527
vt 0.050283 0.975988
vt 0.154722 0.993986
vt 0.186762 0.993986
vt 0.186762 0.997995
vt 0.041159 0.598152
vt 0.039414 0.595429
vt 0.102824 0.355794
vt 0.105254 0.353125
vt 0.085906 0.331596
vt 0.521882 0.999599
vt 0.520308 0.996848
vt 0.485718 0.558347
vt 0.098509 0.322652
vt 0.096079 0.325321
vt 0.529454 0.598190
vt 0.531213 0.595429
vt 0.492463 0.588820
vt 0.550366 0.985456
vt 0.547607 0.982642
vt 0.556679 0.613949
vt 0.559629 0.611208
vt 0.079160 0.301123
vt 0.359612 0.553729
vt 0.359612 0.523256
vt 0.355396 0.523256
vt 0.560108 0.953461
vt 0.557244 0.952282
vt 0.564934 0.645149
vt 0.567875 0.644093
vt 0.407673 0.605052
vt 0.411889 0.605052
vt 0.411889 0.637931
vt 0.196540 0.807939
vt 0.162310 0.807939
vt 0.162310 0.811949
vt 0.509696 0.807939
vt 0.196540 0.811949
vt 0.546400 0.541825
vt 0.771079 0.302997
vt 0.766149 0.301123
vt 0.517459 0.561748
vt 0.543858 0.537475
vt 0.795531 0.131526
vt 0.798727 0.099038
vt 0.515653 0.557518
vt 0.108910 0.350747
vt 0.486124 0.553976
vt 0.492869 0.584449
vt 0.102165 0.320274
vt 0.524204 0.592221
vt 0.522399 0.587991
vt 0.890809 0.128318
vt 0.894005 0.095830
vt 0.553145 0.572299
vt 0.550603 0.567948
vt 0.777825 0.333470
vt 0.772894 0.331596
vt 0.090505 0.931449
vt 0.057802 0.763687
vt 0.511338 0.654626
vt 0.399377 0.701296
vt 0.847808 0.448644
vt 0.847808 0.111043
vt 0.178291 0.005619
vt 0.178291 0.351237
vt 0.680057 0.005620
vt 0.680056 0.351236
vt 0.943086 0.107836
vt 0.943086 0.445436
vt 0.581366 0.820770
vt 0.154722 0.997995
vt 0.083052 0.333927
vt 0.483660 0.561399
vt 0.490405 0.591872
vt 0.076307 0.303454
vt 0.355396 0.553729
vt 0.407673 0.637931
vt 0.509696 0.811949
vt 0.064415 0.048516
vt 0.021501 0.892057
s 1
f 3/1/1 4/2/2 1/3/3
f 1/3/3 11/4/4 9/5/5
f 2/6/6 8/7/7 7/8/8
f 9/5/5 10/9/9 8/7/7
f 4/2/2 6/10/10 5/11/11
f 5/11/11 12/12/12 11/4/4
f 3/1/1 13/13/13 15/14/14
f 7/8/8 14/15/15 13/13/13
f 15/14/14 16/16/16 6/10/10
f 11/4/4 31/17/17 26/18/18
f 9/5/5 26/18/18 24/19/19
f 29/20/20 31/17/17 11/4/4
f 8/7/7 40/21/21 38/22/22
f 24/19/19 40/21/21 8/7/7
f 6/10/10 44/23/23 42/24/24
f 5/11/11 42/24/24 29/20/20
f 7/8/8 38/22/22 19/25/25
f 34/26/26 44/23/23 6/10/10
f 13/13/13 21/27/27 36/28/28
f 19/25/25 21/27/27 13/13/13
f 15/14/14 36/28/28 34/26/26
f 45/29/29 46/30/30 47/31/31
f 61/32/32 57/33/33 45/29/29
f 50/34/34 51/35/35 48/36/36
f 51/35/35 63/37/37 61/32/32
f 54/38/38 56/39/39 46/30/30
f 57/33/33 59/40/40 54/38/38
f 69/41/41 65/42/42 47/31/31
f 65/42/42 67/43/43 50/34/34
f 56/39/39 71/44/44 69/41/41
f 30/45/45 140/46/46 142/47/47
f 142/47/47 94/48/48 23/49/19
f 28/50/49 101/51/50 140/46/46
f 22/52/19 92/53/51 85/54/52
f 98/55/53 100/56/50 27/57/20
f 39/58/54 85/54/52 88/59/55
f 43/60/56 95/61/57 98/55/53
f 88/59/55 91/62/58 18/63/25
f 33/64/26 103/65/59 95/61/57
f 17/66/60 89/67/58 135/68/61
f 137/69/62 102/70/63 32/71/26
f 20/72/64 135/68/61 137/69/62
f 62/73/65 158/74/66 157/75/67
f 78/76/68 158/74/66 62/73/65
f 58/77/69 157/75/67 81/78/70
f 105/79/71 110/80/72 52/81/73
f 52/81/73 110/80/72 77/82/68
f 120/83/74 125/84/75 55/85/76
f 79/86/70 120/83/74 53/87/77
f 73/88/78 105/79/71 49/89/79
f 55/85/76 125/84/75 82/90/80
f 70/91/81 148/92/82 147/93/83
f 66/94/84 147/93/83 75/95/78
f 84/96/80 148/92/82 70/91/81
f 105/79/71 106/97/85 109/98/86
f 109/98/86 112/99/87 77/82/68
f 120/83/74 121/100/88 123/101/89
f 79/86/70 129/102/90 121/100/88
f 73/88/78 114/103/91 106/97/85
f 123/101/89 126/104/92 82/90/80
f 154/105/93 156/106/94 157/75/67
f 78/76/68 113/107/95 154/105/93
f 156/106/94 130/108/96 81/78/70
f 146/109/97 115/110/98 75/95/78
f 84/96/80 128/111/99 144/112/100
f 144/112/100 146/109/97 147/93/83
f 141/113/47 139/114/101 204/115/102
f 159/116/103 177/117/104 203/118/105
f 203/118/105 206/119/106 93/120/48
f 177/117/104 174/121/107 206/119/106
f 139/114/101 99/122/108 187/123/109
f 189/124/110 133/125/111 160/126/112
f 206/119/106 168/127/113 86/128/114
f 175/129/115 163/130/116 169/131/117
f 99/122/108 97/132/118 182/133/119
f 183/134/120 181/135/121 132/136/122
f 168/127/113 167/137/123 87/138/124
f 164/139/125 165/140/126 166/141/127
f 97/132/118 96/142/128 186/143/129
f 180/144/130 181/135/121 183/134/120
f 167/137/123 173/145/131 90/146/132
f 96/142/128 104/147/63 202/148/133
f 166/141/127 165/140/126 117/149/134
f 191/150/135 179/151/136 184/152/137
f 173/145/131 199/153/138 136/154/139
f 104/147/63 138/155/62 196/156/140
f 172/157/141 118/158/142 149/159/143
f 193/160/144 190/161/145 200/162/146
f 199/153/138 196/156/140 138/155/62
f 150/163/147 193/160/144 195/164/148
f 178/165/149 161/166/150 155/167/151
f 176/168/107 178/165/149 153/169/93
f 162/170/150 134/171/152 130/108/96
f 164/139/125 176/168/107 111/172/153
f 132/136/122 181/135/121 122/173/88
f 165/140/126 164/139/125 108/174/86
f 181/135/121 180/144/130 124/175/89
f 117/149/134 165/140/126 107/176/85
f 180/144/130 192/177/145 127/178/154
f 152/179/155 119/180/156 115/110/98
f 192/177/145 194/181/157 143/182/100
f 194/181/157 151/183/155 145/184/158
f 1/3/3 2/6/6 3/1/1
f 9/5/5 2/6/6 1/3/3
f 7/8/8 3/1/1 2/6/6
f 8/7/7 2/6/6 9/5/5
f 5/11/11 1/3/3 4/2/2
f 11/4/4 1/3/3 5/11/11
f 15/14/14 4/2/2 3/1/1
f 13/13/13 3/1/1 7/8/8
f 6/10/10 4/2/2 15/14/14
f 26/18/18 9/5/5 11/4/4
f 24/19/19 10/9/9 9/5/5
f 11/4/4 12/12/12 29/20/20
f 38/22/22 7/8/8 8/7/7
f 8/7/7 10/9/9 24/19/19
f 42/24/24 5/11/11 6/10/10
f 29/20/20 12/12/12 5/11/11
f 19/25/25 14/15/15 7/8/8
f 6/10/10 16/16/16 34/26/26
f 36/28/28 15/14/14 13/13/13
f 13/13/13 14/15/15 19/25/25
f 34/26/26 16/16/16 15/14/14
f 47/31/31 48/36/36 45/29/29
f 45/29/29 48/36/36 61/32/32
f 48/36/36 47/31/31 50/34/34
f 61/32/32 48/36/36 51/35/35
f 46/30/30 45/29/29 54/38/38
f 54/38/38 45/29/29 57/33/33
f 47/31/31 46/30/30 69/41/41
f 50/34/34 47/31/31 65/42/42
f 69/41/41 46/30/30 56/39/39
f 142/47/47 25/185/159 30/45/45
f 23/49/19 25/185/159 142/47/47
f 140/46/46 30/45/45 28/50/49
f 85/54/52 39/58/54 22/52/19
f 27/57/20 41/186/160 98/55/53
f 88/59/55 37/187/161 39/58/54
f 98/55/53 41/186/160 43/60/56
f 18/63/25 37/187/161 88/59/55
f 95/61/57 43/60/56 33/64/26
f 135/68/61 20/72/64 17/66/60
f 32/71/26 35/188/162 137/69/62
f 137/69/62 35/188/162 20/72/64
f 157/75/67 58/77/69 62/73/65
f 62/73/65 64/189/163 78/76/68
f 81/78/70 60/190/164 58/77/69
f 52/81/73 49/89/79 105/79/71
f 76/191/68 63/37/37 51/35/35
f 55/85/76 53/87/77 120/83/74
f 54/38/38 59/40/40 80/192/70
f 50/34/34 67/43/43 74/193/78
f 83/194/80 71/44/44 56/39/39
f 147/93/83 66/94/84 70/91/81
f 75/95/78 68/195/165 66/94/84
f 70/91/81 72/196/166 84/96/80
f 109/98/86 110/80/72 105/79/71
f 77/82/68 110/80/72 109/98/86
f 123/101/89 125/84/75 120/83/74
f 121/100/88 120/83/74 79/86/70
f 106/97/85 105/79/71 73/88/78
f 82/90/80 125/84/75 123/101/89
f 157/75/67 158/74/66 154/105/93
f 154/105/93 158/74/66 78/76/68
f 81/78/70 157/75/67 156/106/94
f 75/95/78 147/93/83 146/109/97
f 144/112/100 148/92/82 84/96/80
f 147/93/83 148/92/82 144/112/100
f 204/115/102 203/118/105 141/113/47
f 203/118/105 204/115/102 159/116/103
f 93/120/48 141/113/47 203/118/105
f 206/119/106 203/118/105 177/117/104
f 187/123/109 204/115/102 139/114/101
f 160/126/112 205/197/167 189/124/110
f 86/128/114 93/120/48 206/119/106
f 169/131/117 207/198/106 175/129/115
f 182/133/119 187/123/109 99/122/108
f 132/136/122 188/199/168 183/134/120
f 87/138/124 86/128/114 168/127/113
f 166/141/127 170/200/117 164/139/125
f 186/143/129 182/133/119 97/132/118
f 183/134/120 185/201/137 180/144/130
f 90/146/132 87/138/124 167/137/123
f 202/148/133 186/143/129 96/142/128
f 117/149/134 171/202/169 166/141/127
f 184/152/137 201/203/170 191/150/135
f 136/154/139 90/146/132 173/145/131
f 196/156/140 202/148/133 104/147/63
f 149/159/143 197/204/171 172/157/141
f 200/162/146 195/164/148 193/160/144
f 138/155/62 136/154/139 199/153/138
f 195/164/148 198/205/171 150/163/147
f 155/167/151 153/169/93 178/165/149
f 153/169/93 111/172/153 176/168/107
f 130/108/96 156/106/94 162/170/150
f 111/172/153 108/174/86 164/139/125
f 121/100/88 129/102/90 131/206/172
f 108/174/86 107/176/85 165/140/126
f 124/175/89 122/173/88 181/135/121
f 106/97/85 114/103/91 116/207/173
f 127/178/154 124/175/89 180/144/130
f 115/110/98 146/109/97 152/179/155
f 143/182/100 127/178/154 192/177/145
f 145/184/158 143/182/100 194/181/157
